<svg xmlns="http://www.w3.org/2000/svg" xmlns:xlink="http://www.w3.org/1999/xlink" width="159.337" height="497.052" viewBox="0 0 159.337 497.052">
  <defs>
    <clipPath id="clip-path">
      <rect id="Rectángulo_38845" data-name="Rectángulo 38845" width="132.088" height="407.054" fill="none"/>
    </clipPath>
    <clipPath id="clip-path-2">
      <rect id="Rectángulo_38839" data-name="Rectángulo 38839" width="2.852" height="2.141" fill="none"/>
    </clipPath>
    <clipPath id="clip-path-3">
      <rect id="Rectángulo_38840" data-name="Rectángulo 38840" width="6.918" height="2.306" fill="none"/>
    </clipPath>
    <clipPath id="clip-path-4">
      <rect id="Rectángulo_38841" data-name="Rectángulo 38841" width="9.68" height="6.94" fill="none"/>
    </clipPath>
    <clipPath id="clip-path-5">
      <rect id="Rectángulo_38842" data-name="Rectángulo 38842" width="10.494" height="7.524" fill="none"/>
    </clipPath>
  </defs>
  <g id="Grupo_159039" data-name="Grupo 159039" transform="translate(-1248 -2211.5)">
    <g id="Grupo_157970" data-name="Grupo 157970" transform="translate(1248 2173.001)">
      <g id="Grupo_158099" data-name="Grupo 158099" transform="translate(0 108.25)">
        <path id="Trazado_114544" data-name="Trazado 114544" d="M145.013,400.977c22.113-11.438,45.047-26.871,53.953-52.682,9.884-28.645-.462-60.724-.213-91.514.2-24.392,7.111-47.948,12.551-71.535s9.436-48.648,3.823-72.183a94.386,94.386,0,0,0-22.041-41.32C174.942,51.824,148.8,41.046,123.963,45.6S76.561,70.913,69.3,98.446c-10.287,39.008,9.808,80.649,5.537,121.1-1.671,15.827-7.019,30.795-10.646,46.189a214.847,214.847,0,0,0-5.683,50.252c.136,25.965,5.892,53.667,22.835,70.958C98.434,404.384,123.868,411.914,145.013,400.977Z" transform="translate(-58.504 -26.053)" fill="#ffd947"/>
        <g id="Grupo_162093" data-name="Grupo 162093" transform="translate(27.249 20.247)">
          <g id="Grupo_162107" data-name="Grupo 162107">
            <g id="Grupo_162106" data-name="Grupo 162106">
              <g id="Grupo_162105" data-name="Grupo 162105" clip-path="url(#clip-path)">
                <path id="Trazado_142893" data-name="Trazado 142893" d="M93.063,93.584c-.173.046-.345.089-.52.127-4.914,1.106-9.629-1.681-13.992-4.858a141.623,141.623,0,0,1-11.164-9.3C60.157,73,53.709,66.415,53.438,66.138a8.512,8.512,0,0,1,12.172-11.9c.077.079,5.316,5.427,11.4,11.046A119.043,119.043,0,0,0,89.68,75.871c1.649-1.7,4.543-5.166,8.968-12.047,4.116-6.4,7.331-12.3,7.363-12.364a8.512,8.512,0,0,1,14.959,8.128c-.164.3-4.056,7.447-8.961,14.917a107.732,107.732,0,0,1-8.168,11.089c-3.944,4.562-7.293,7.05-10.779,7.99" transform="translate(3.552 3.274)" fill="#314fa5"/>
                <path id="Trazado_142894" data-name="Trazado 142894" d="M101.2,53.589A14.31,14.31,0,0,0,115.314,62.6c.513-.025.517-.827,0-.8a13.5,13.5,0,0,1-13.339-8.423c-.189-.474-.966-.267-.773.213" transform="translate(7.045 3.698)" fill="#1c2b74"/>
                <path id="Trazado_142895" data-name="Trazado 142895" d="M123.05,51.522s-2.974,6.913-7.5,7.6c-6.082.927-9.668-4.607-9.668-4.607-1.973-3.33-2.073-5.118-2.207-8.588s5.663-6.03,5.663-6.03,6.546-12.218,8.807-12.828S115.583,38.6,115.583,38.6a2.227,2.227,0,0,1,2.13-.074A20.848,20.848,0,0,1,124.538,45c1.256,2.175-1.488,6.526-1.488,6.526" transform="translate(7.22 1.884)" fill="#eaad8f"/>
                <path id="Trazado_142896" data-name="Trazado 142896" d="M105.218,46.912c2.682-.574,6.141-1.047,8.228-3,.787-.738,1.506-2.019.816-3.048-.605-.9-1.91-1.023-2.878-1.231-.5-.108-.693.664-.191.772.809.174,2.367.272,2.552,1.31.14.785-.8,1.641-1.379,2.04a8.486,8.486,0,0,1-1.61.821,34.222,34.222,0,0,1-5.763,1.575c-.5.107-.274.871.226.764" transform="translate(7.292 2.759)" fill="#c6695d"/>
                <path id="Trazado_142897" data-name="Trazado 142897" d="M113.023,42.942a21.508,21.508,0,0,0,8.737,6.752c.467.2.861-.5.389-.694A20.768,20.768,0,0,1,113.7,42.53c-.31-.4-.995.006-.681.412" transform="translate(7.865 2.95)" fill="#c6695d"/>
                <path id="Trazado_142898" data-name="Trazado 142898" d="M114.929,46.964a9.169,9.169,0,0,0-3.425,8.253c.049.506.846.49.8-.021a8.455,8.455,0,0,1,3.2-7.677c.4-.325-.179-.876-.571-.555" transform="translate(7.762 3.264)" fill="#c6695d"/>
                <path id="Trazado_142899" data-name="Trazado 142899" d="M114.941,44.4a16.67,16.67,0,0,1,3.637-5.114c.39-.332-.184-.884-.571-.554a17.232,17.232,0,0,0-3.76,5.279c-.24.452.455.843.694.389" transform="translate(7.953 2.69)" fill="#c6695d"/>
                <path id="Trazado_142900" data-name="Trazado 142900" d="M117.2,46.827a20.676,20.676,0,0,1,3.676-5.282c.352-.373-.218-.928-.571-.555a21.389,21.389,0,0,0-3.8,5.448c-.219.461.474.853.694.389" transform="translate(8.111 2.846)" fill="#c6695d"/>
                <path id="Trazado_142901" data-name="Trazado 142901" d="M119.7,47.855l-.106.164.7.389a10.938,10.938,0,0,1,2.948-4.153c.387-.338-.187-.89-.57-.554a11.4,11.4,0,0,0-3.073,4.318.4.4,0,0,0,.7.389c.034-.055.07-.109.1-.164.279-.431-.417-.817-.694-.389" transform="translate(8.326 3.036)" fill="#c6695d"/>
                <path id="Trazado_142902" data-name="Trazado 142902" d="M114.279,38.007a9.557,9.557,0,0,0-1.425,2.943.4.4,0,0,0,.773.191,8.9,8.9,0,0,1,1.346-2.745c.293-.421-.4-.807-.694-.389" transform="translate(7.858 2.634)" fill="#c6695d"/>
                <path id="Trazado_142903" data-name="Trazado 142903" d="M87.467,74.178A8.688,8.688,0,0,0,85.928,80.1c.041.4.672.406.63,0a8.178,8.178,0,0,1,1.456-5.613c.233-.333-.316-.645-.547-.314" transform="translate(5.981 5.156)" fill="#1c2b74"/>
                <path id="Trazado_142904" data-name="Trazado 142904" d="M86.707,75.576a3.453,3.453,0,0,0-2.436,2.215c-.138.383.472.546.609.166a2.8,2.8,0,0,1,1.991-1.772.315.315,0,0,0-.164-.609" transform="translate(5.867 5.262)" fill="#1c2b74"/>
                <path id="Trazado_142905" data-name="Trazado 142905" d="M50.216,216.11c-.337,5.981-.877,13.092-1.647,21.13-.4,4.119-.851,8.481-1.368,13.059,0,0,1.861,13.029-1.239,34.125-2.217,15.073-8.182,59.684-9.641,71.48-3.131,3.365-4.888,2.294-9.3-2.063-.787-7.345-3.822-26.358-4.849-37.361-1.447-15.511-8.065-50.047,0-63.491-1.131-5.677-2.19-10.984-3.124-15.931-1.536-8.123-2.73-15.272-3.337-21.47-.838-8.556-.557-15.3,1.5-20.3l31.846.62c1.512-3.17,2.023,4.738,1.154,20.2" transform="translate(1.064 13.595)" fill="#eaad8f"/>
                <path id="Trazado_142906" data-name="Trazado 142906" d="M25.857,345.443s-4.318,1.76-4.479,7.837,0,21.753,0,21.753h2.2l1.2-5.528s.759,6.008,3.8,9.847,9.6,4,13.916,3.359,1.12-8.637-.64-13.116-5.44-15.2-5.44-15.2Z" transform="translate(1.484 24.056)" fill="#171612"/>
                <path id="Trazado_142907" data-name="Trazado 142907" d="M26.846,337.317s.137,7.413-1.142,8.692-3.039,5.438-1.76,10.556,2.133,12.583,5.119,15.783,10.769,3.305,11.41.747-3.946-12.051-4.16-16.956-1.065-18.127-1.065-18.127Z" transform="translate(1.636 23.491)" fill="#eaad8f"/>
                <path id="Trazado_142908" data-name="Trazado 142908" d="M48.837,232.723c.613-6.738,1.058-12.762,1.349-17.939l-34.5-.523c.489,5,1.363,10.627,2.488,16.882,3.688,1.279,21.583,2.322,30.662,1.58" transform="translate(1.092 14.921)" fill="#c6695d"/>
                <path id="Trazado_142909" data-name="Trazado 142909" d="M34.739,248.532a17.458,17.458,0,0,0,10.369.51.4.4,0,0,0-.213-.773,16.7,16.7,0,0,1-9.943-.51c-.486-.178-.7.6-.213.773" transform="translate(2.4 17.252)" fill="#c6695d"/>
                <path id="Trazado_142910" data-name="Trazado 142910" d="M82.366,254.994c-2.85,22.037-5.91,88.046-6.388,98.649-2.945,2.275-6.172,2.559-9.68,0-.74-3.054-5.385-22.424-7.094-35.158-1.861-13.855-9.513-39.915-1.447-53.356-2.925-9.764-5.734-18.417-7.486-28.213a116.584,116.584,0,0,1-1.812-20.653,166.205,166.205,0,0,1,1.4-21.038l29.573-2.067s1.649,10.329,2.782,23.614c.332,3.9.619,8.059.808,12.286a156.676,156.676,0,0,1-.651,25.934" transform="translate(3.375 13.451)" fill="#eaad8f"/>
                <path id="Trazado_142911" data-name="Trazado 142911" d="M85.648,368.783c-2.12-3.42-21.13-21.654-21.13-21.654s-3.887,3.046-3.7,6.4c.18,3.194.045,20,.092,21.776h2.306l1.3-7.669s5.255,8.407,9.2,11.287S91,381.285,94.2,380.858s-6.429-8.654-8.549-12.075" transform="translate(4.235 24.174)" fill="#171612"/>
                <path id="Trazado_142912" data-name="Trazado 142912" d="M64.234,338.728l.3,8.229a9.551,9.551,0,0,0,0,6.078c1.069,3.626,5.105,9.38,8.958,13.65,3.326,3.683,10.45,7.357,12.583,6.4s-4.053-8.318-5.866-12.156a65.888,65.888,0,0,1-3.926-10.805c-.995-3.664-1.133-12.277-1.133-12.277Z" transform="translate(4.461 23.527)" fill="#eaad8f"/>
                <path id="Trazado_142913" data-name="Trazado 142913" d="M49.735,232.146a117.541,117.541,0,0,1-1.277-17.388l33.751.51c.326,3.829.609,7.9.8,12.045,0,0-11.345,2.942-33.271,4.833" transform="translate(3.375 14.956)" fill="#c6695d"/>
                <path id="Trazado_142914" data-name="Trazado 142914" d="M70.8,253.333a10.006,10.006,0,0,0,9.521-.559c.437-.271.035-.966-.405-.693a9.179,9.179,0,0,1-8.711.559c-.465-.214-.874.477-.4.693" transform="translate(4.916 17.55)" fill="#c6695d"/>
                <path id="Trazado_142915" data-name="Trazado 142915" d="M17.731,48.995c12.641,3.46,26.262,2.846,40.421,0-1.173-9.122-1.846-20.785-1.089-25.543C59.625,7.333,45.24-3.148,27.928.855s-14.4,27.875-12.335,36.251c.417,1.689,1.3,6.747,2.138,11.889" transform="translate(0.976 0)" fill="#e59f3f"/>
                <path id="Trazado_142916" data-name="Trazado 142916" d="M6.408,70.2c.206,1.293,1.953,3.893,3.961,7.437.277.489.566,1,.86,1.518.134.232.267.467.4.706,5.263,9.275,12.9,22.915,15.821,32.99a30.331,30.331,0,0,1,1.122,5.516c1.125,12.312-5.213,23.926-5.213,23.926,31.742,19.636,57.715,18.3,57.715,18.3s-.441-10.5-7-30.873c-1.172-3.64-2.445-8.191-3.423-12.657v0c-.075-.344-.15-.687-.219-1.029-.328-1.566-.615-3.114-.844-4.594a33.784,33.784,0,0,1-.476-8.522,16.2,16.2,0,0,1,.328-1.83c.062-.262.125-.521.2-.783A78.529,78.529,0,0,1,72.7,92.239c.123-.307.243-.617.36-.924.31-.81.6-1.619.85-2.435.077-.26.155-.513.221-.772a17.713,17.713,0,0,0,.669-3.947,11.976,11.976,0,0,0-.016-1.417c-.016-.259-.043-.516-.075-.762a12.649,12.649,0,0,0-1.619-4.655c-.041-.07-.08-.136-.121-.2-.1-.168-.2-.334-.307-.5-.061-.1-.125-.2-.189-.289-1.564-2.32-3.515-4.041-4.578-5.452-.9-1.189-.93-2.982-.8-5.029a39.088,39.088,0,0,0,.179-6.349c-.027-.275-.063-.548-.109-.82-.053-.328-.12-.655-.205-.978A7.068,7.068,0,0,0,65.689,55a4.616,4.616,0,0,0-.593-.62c-1.673-1.451-4.113-1.464-6.973-1.646a13.239,13.239,0,0,1-2.784-.526c-.328-.093-.655-.2-.978-.31a32.871,32.871,0,0,1-5.88-2.809L28.87,46.806s-.783,2.079-4.835,4.642c-.225.144-.459.289-.7.433a40.576,40.576,0,0,1-7.09,3.217c-.815.288-1.569.59-2.264.9q-.46.209-.885.419c-3.321,1.66-5.155,3.6-6.106,5.625a8.291,8.291,0,0,0-.337.815,9.524,9.524,0,0,0-.423,1.63c-.048.273-.082.543-.107.816A19.669,19.669,0,0,0,6.408,70.2" transform="translate(0.422 3.26)" fill="#fff"/>
                <path id="Trazado_142917" data-name="Trazado 142917" d="M54.737,70c.51,3.519,3.444,5.927,6.729,6.833a15.6,15.6,0,0,0,8.242-.278c-.041-.068-.08-.136-.121-.2-.1-.169-.2-.335-.307-.5a15.072,15.072,0,0,1-6.863.382c-3.492-.721-6.724-3.182-6.954-6.967-.227-3.706,2.28-7.143,5.308-9.019a17.984,17.984,0,0,1,3.116-1.516c-.027-.275-.063-.548-.109-.82a16.951,16.951,0,0,0-4.719,2.552c-2.8,2.208-4.853,5.891-4.321,9.533" transform="translate(3.806 4.033)" fill="#dbccc1"/>
                <path id="Trazado_142918" data-name="Trazado 142918" d="M6.611,61.871q2.394-.109,4.8.016a40.507,40.507,0,0,1,20.068,6.972c6.112,3.984,11.456,8.987,17.132,13.542,5.024,4.027,10.641,8.39,17.193,9.376a15.227,15.227,0,0,0,6.863-.528q.185-.462.362-.925c-4.177,1.489-9.333.58-13.308-1.365-6.342-3.1-11.7-8.052-17.071-12.547-5.062-4.241-10.264-8.437-16.214-11.379a39.928,39.928,0,0,0-19.27-3.985l-.214.009a8.185,8.185,0,0,0-.337.815" transform="translate(0.46 4.249)" fill="#dbccc1"/>
                <path id="Trazado_142919" data-name="Trazado 142919" d="M51.818,101.949A58.953,58.953,0,0,0,67.6,113.723c-.075-.344-.15-.687-.218-1.029a62.007,62.007,0,0,1-12.213-8.618c-1.6-1.448-4.184-3.328-4.393-5.612-.449-4.951,10.371-2.258,12.893-1.573q1.38.372,2.721.858c.061-.262.125-.522.2-.783q-1.231-.438-2.488-.786a37.164,37.164,0,0,0-5.893-1.133,16.575,16.575,0,0,0-5.591-.011,3.235,3.235,0,0,0-2.643,2.643c-.232,1.668.762,3.116,1.844,4.27" transform="translate(3.478 6.601)" fill="#dbccc1"/>
                <path id="Trazado_142920" data-name="Trazado 142920" d="M28.743,109.155c3.269-1.593,6.8-.019,9.551,1.924a36.366,36.366,0,0,1,7.761,7.5,38.08,38.08,0,0,1,7.753,19.609c.048.513-.754.51-.8,0a37.224,37.224,0,0,0-6.84-18.129,36.417,36.417,0,0,0-6.713-7.1c-2.753-2.218-6.69-4.872-10.3-3.111-.462.226-.869-.466-.4-.692" transform="translate(1.987 7.556)" fill="#dbccc1"/>
                <path id="Trazado_142921" data-name="Trazado 142921" d="M62.405,127c-1.51-5.1-3.327-10.228-6.527-14.542a22.939,22.939,0,0,0-5.62-5.446,23.119,23.119,0,0,0-7.02-2.9c-3.983-1.069-8.852-2.521-10.151-6.989-.7-2.428-.124-4.97-.205-7.446A11.191,11.191,0,0,0,30.6,83.16a7.227,7.227,0,0,0-6.408-2.933A6.1,6.1,0,0,0,18.8,84.319a.4.4,0,0,1-.773-.214c1.063-3.545,5.072-5.306,8.553-4.534,4.2.932,6.682,5.33,7.054,9.341.282,3.059-.819,6.43.749,9.273,1.355,2.459,4.127,3.714,6.691,4.494,2.688.818,5.451,1.343,7.956,2.671a21.645,21.645,0,0,1,5.856,4.644c4.267,4.719,6.511,10.786,8.29,16.793a.4.4,0,0,1-.773.213" transform="translate(1.254 5.529)" fill="#dbccc1"/>
                <path id="Trazado_142922" data-name="Trazado 142922" d="M15.371,72.994a6.836,6.836,0,0,1-4.145,5.017c.134.232.267.467.4.7a7.636,7.636,0,0,0,4.642-6.426c.476-5.767-4.832-9.782-10.048-8.942-.048.273-.082.542-.107.815,5.091-1.013,10.262,3.287,9.255,8.832" transform="translate(0.426 4.404)" fill="#dbccc1"/>
                <path id="Trazado_142923" data-name="Trazado 142923" d="M12.634,56.119a32.129,32.129,0,0,0,6.194,2.806c2.147.7,5.887,1.617,6.278-1.664a10.473,10.473,0,0,0-1.529-6.115q-.337.217-.706.433a12.99,12.99,0,0,1,.623,1.379c.508,1.328,1.385,3.675.592,5.024-.874,1.486-3.121.746-4.4.367A28.242,28.242,0,0,1,15.429,56.7q-.974-.47-1.91-1c-.307.139-.6.277-.885.419" transform="translate(0.88 3.562)" fill="#dbccc1"/>
                <path id="Trazado_142924" data-name="Trazado 142924" d="M51.216,51.568c1.061,2.456,2.32,4.706,5.048,5.409,2.454.63,4.567-.511,6.281-2.307a4.747,4.747,0,0,0-.594-.619c-1.978,2.108-4.436,3.292-7.029,1.406a8.876,8.876,0,0,1-2.729-3.578q-.493-.141-.978-.31" transform="translate(3.567 3.591)" fill="#dbccc1"/>
                <path id="Trazado_142925" data-name="Trazado 142925" d="M51.54,58.469a3.349,3.349,0,0,1-1.619,3.816c-1.872,1.119-4.426.848-6.5.7A40.791,40.791,0,0,1,29.17,59.3c-.466-.215-.061-.9.4-.689A40.053,40.053,0,0,0,40.626,61.9a35.671,35.671,0,0,0,5.67.386c1.983-.035,5.3-.885,4.473-3.6-.15-.492.62-.7.77-.212" transform="translate(2.017 4.052)" fill="#dbccc1"/>
                <path id="Trazado_142926" data-name="Trazado 142926" d="M16.2,79.851a141.047,141.047,0,0,1,18.264,47.9c.092.5-.677.718-.77.213A140.4,140.4,0,0,0,15.514,80.255a.4.4,0,0,1,.69-.4" transform="translate(1.076 5.548)" fill="#dbccc1"/>
                <path id="Trazado_142927" data-name="Trazado 142927" d="M49.859,22a2.975,2.975,0,0,1,2.771,2.5c.7,2.565-.094,7.079-2.8,6.859S49.859,22,49.859,22" transform="translate(3.387 1.532)" fill="#c6695d"/>
                <path id="Trazado_142928" data-name="Trazado 142928" d="M47.357,31.923a3.627,3.627,0,1,1,3.876,3.361,3.631,3.631,0,0,1-3.876-3.361m1.058-.075a2.567,2.567,0,1,0,2.378-2.743,2.569,2.569,0,0,0-2.378,2.743" transform="translate(3.297 1.953)" fill="#fff"/>
                <line id="Línea_380" data-name="Línea 380" y2="0.002" transform="translate(48.42 44.67)" fill="#eaad8f"/>
                <path id="Trazado_142929" data-name="Trazado 142929" d="M25.833,52.113s4.363,6.307,12.139,6.513c9.879.26,10.5-4.057,10.5-4.057a18.5,18.5,0,0,1-1.245-3.934c-.106-.525-.2-1.068-.27-1.631a44.9,44.9,0,0,1-.323-5.2c-.007-.46-.011-.939-.01-1.432v-.059c-6.915-.8-12.77-3.143-17.121-7.665l-1.08-.483-.728-.327-.078.406.275,1.235c1.311,5.806.557,10.831-2.055,16.631" transform="translate(1.799 2.357)" fill="#eaad8f"/>
                <path id="Trazado_142930" data-name="Trazado 142930" d="M34.186,38.922c1.8,3.045,5.762,8.338,12.186,9.727a44.653,44.653,0,0,1-.323-5.2q-.011-.692-.01-1.433c-.13.031-.266.059-.4.083-3.637.672-7.842-.751-11.453-3.182" transform="translate(2.381 2.711)" fill="#171612"/>
                <path id="Trazado_142931" data-name="Trazado 142931" d="M18.86,27.114c.2,3.673,3.549,8,8.361,7.879h.129c.088.206.189.41.294.616.045.089.093.18.14.268a.152.152,0,0,0,.015.025c3.328,6.08,12.417,9.273,17.233,9.144a11.014,11.014,0,0,0,3.22-.595c5.038-1.382,5.621-8.321,4.538-13.543a20.126,20.126,0,0,0-.57-2.141c-.015-.045-.03-.091-.046-.136,0,0,1.312-7.456,1.54-10.691.436-6.268-3.475-12.4-17.2-12.913s-16.541,8.142-17.259,12.69c-.121.757.271,5.213,1.056,5.893a3.65,3.65,0,0,0-1.455,3.505" transform="translate(1.313 0.349)" fill="#eaad8f"/>
                <path id="Trazado_142932" data-name="Trazado 142932" d="M48.7,25.529c-.1,1.026-.619,1.814-1.152,1.761s-.881-.93-.778-1.955.619-1.814,1.152-1.761.881.93.778,1.955" transform="translate(3.256 1.642)" fill="#171612"/>
                <path id="Trazado_142933" data-name="Trazado 142933" d="M45.379,24.475a.271.271,0,0,1-.133-.1.275.275,0,0,1,.077-.379c.106-.07,2.6-1.683,4.75-.1a.273.273,0,0,1-.324.44c-1.843-1.355-4.1.1-4.125.12a.271.271,0,0,1-.246.028" transform="translate(3.148 1.615)" fill="#171612"/>
                <path id="Trazado_142934" data-name="Trazado 142934" d="M40.331,24.827c-.1,1.026-.619,1.814-1.152,1.761s-.881-.93-.778-1.955.619-1.814,1.152-1.761.881.93.778,1.955" transform="translate(2.673 1.593)" fill="#171612"/>
                <path id="Trazado_142935" data-name="Trazado 142935" d="M36.591,24.111a.27.27,0,0,1-.144-.088.273.273,0,0,1,.03-.385c.1-.082,2.367-2,4.7-.7a.273.273,0,1,1-.265.477c-2-1.112-4.056.623-4.076.64a.27.27,0,0,1-.241.059" transform="translate(2.534 1.566)" fill="#171612"/>
                <path id="Trazado_142936" data-name="Trazado 142936" d="M45.063,34.818a3.741,3.741,0,0,1-.488-.032,4.726,4.726,0,0,1-2.839-1.87.517.517,0,0,1,.846-.6,3.722,3.722,0,0,0,2.125,1.44,1.826,1.826,0,0,0,1.78-.594.521.521,0,0,1,.717-.136.514.514,0,0,1,.144.709,2.744,2.744,0,0,1-2.286,1.078" transform="translate(2.9 2.236)" fill="#c6695d"/>
                <path id="Trazado_142937" data-name="Trazado 142937" d="M27.34,30.733a.5.5,0,0,1-.428-.374c-.847-3.421-5.051-4.695-5.094-4.707A.5.5,0,0,1,22.1,24.7c.195.058,4.792,1.442,5.778,5.422a.5.5,0,0,1-.363.6.5.5,0,0,1-.173.012" transform="translate(1.495 1.719)" fill="#c6695d"/>
                <path id="Trazado_142938" data-name="Trazado 142938" d="M22.859,28.906a.5.5,0,0,1-.183-.057.5.5,0,0,1-.2-.673,3.406,3.406,0,0,1,2.914-1.641.5.5,0,0,1,.013.993,2.414,2.414,0,0,0-2.053,1.12.5.5,0,0,1-.491.258" transform="translate(1.561 1.848)" fill="#c6695d"/>
                <g id="Grupo_162095" data-name="Grupo 162095" transform="translate(51.252 29.116)" opacity="0.5">
                  <g id="Grupo_162094" data-name="Grupo 162094">
                    <g id="Grupo_162093-2" data-name="Grupo 162093" clip-path="url(#clip-path-2)">
                      <path id="Trazado_142939" data-name="Trazado 142939" d="M47.916,28.457c.04.546,1.262.913,2.851.9a20.174,20.174,0,0,0-.57-2.14c-1.358.247-2.318.739-2.28,1.237" transform="translate(-47.915 -27.22)" fill="#c6695d"/>
                    </g>
                  </g>
                </g>
                <g id="Grupo_162098" data-name="Grupo 162098" transform="translate(35.854 29.975)" opacity="0.5">
                  <g id="Grupo_162097" data-name="Grupo 162097">
                    <g id="Grupo_162096" data-name="Grupo 162096" clip-path="url(#clip-path-3)">
                      <path id="Trazado_142940" data-name="Trazado 142940" d="M40.437,28.928c.045.621-1.468,1.237-3.378,1.373s-3.493-.256-3.538-.877,1.468-1.238,3.378-1.374,3.493.257,3.538.878" transform="translate(-33.52 -28.023)" fill="#c6695d"/>
                    </g>
                  </g>
                </g>
                <path id="Trazado_142941" data-name="Trazado 142941" d="M26.677,33.156h.128c.089.208.189.41.3.616.045.089.093.18.139.268a.189.189,0,0,0,.015.025,4.413,4.413,0,0,0,1.816-.833,3.5,3.5,0,0,0,.923-1.115.5.5,0,0,0-.879-.465,2.678,2.678,0,0,1-1.126,1.1,3.628,3.628,0,0,1-.85.317,4.332,4.332,0,0,1-.461.091" transform="translate(1.858 2.186)" fill="#c6695d"/>
                <path id="Trazado_142942" data-name="Trazado 142942" d="M28.276,33.074a4.485,4.485,0,0,1-1.043.226c0,.018.006.035.007.053a2.567,2.567,0,1,1-3.147-2.314.721.721,0,0,0-.076-1.069,3.626,3.626,0,1,0,4.28,3.306c0-.068-.013-.136-.021-.2" transform="translate(1.466 2.087)" fill="#fff"/>
                <path id="Trazado_142943" data-name="Trazado 142943" d="M43.86,36.908a1.932,1.932,0,0,1-1.145-.588.325.325,0,0,1,.492-.426,1.32,1.32,0,0,0,1.448.277.326.326,0,0,1,.224.612,2.138,2.138,0,0,1-1.019.125" transform="translate(2.969 2.492)" fill="#c6695d"/>
                <path id="Trazado_142944" data-name="Trazado 142944" d="M22.5,9.884c2.776-3.192,6.728-5.842,11.652-5.818,6.909.035,13.4,2.1,17.125,5.642a9.721,9.721,0,0,1,3.188,6.06c.756,7.137-.859,5.822-.859,5.822a8.974,8.974,0,0,0-.264-1.676h0c-.175-.91-.471-2.307-.966-4.448-1.182-5.1-17.62-4.822-16.379-1.553a5.917,5.917,0,0,1,.061,1.054,7.08,7.08,0,0,1-.538,2.615c-.129.027-.255.057-.372.082A14.857,14.857,0,0,0,31.1,19.227l-.005.005c-.136.109-2.523,2.054-2.028,4.647.506,2.669,1.683,6.126-.181,5.559a4.572,4.572,0,0,1-2.59-2.72l0,0a8.565,8.565,0,0,0-4.117-2.78c-.861-4.686-1.289-9.491.321-14.052" transform="translate(1.491 0.283)" fill="#e59f3f"/>
                <path id="Trazado_142945" data-name="Trazado 142945" d="M21.752,12.451C26.574,10.5,34.669,13.715,36.1,14.426a7.089,7.089,0,0,1-.538,2.616c-.13.026-.256.056-.372.082a14.858,14.858,0,0,0-4.042,1.562l-.005.005c-.136.109-2.523,2.055-2.028,4.647.5,2.669,3.8,16.872,1.151,19.259-5.378,4.84-4.658-16.4-4.658-16.4-1.033-1.148-1.566-2.308-3.383-2.8-2.058-3.7-1.591-7.361-.473-10.943" transform="translate(1.448 0.824)" fill="#e59f3f"/>
                <path id="Trazado_142946" data-name="Trazado 142946" d="M23.1,12.413s-2.739,4.438-.613,11.286a8.355,8.355,0,0,0-3.509,0c-1.1.471-2.5-3.588-1.57-7.447S23.457,7.47,23.457,7.47s.586,3.642-.362,4.943" transform="translate(1.191 0.52)" fill="#e59f3f"/>
                <path id="Trazado_142947" data-name="Trazado 142947" d="M45.12,30.565a.418.418,0,0,0,.222-.068l1.813-1.2a.416.416,0,0,0-.037-.718,6,6,0,0,1-3.029-4.067.417.417,0,0,0-.8.221,6.935,6.935,0,0,0,2.852,4.237l-1.254.826a.417.417,0,0,0,.236.765" transform="translate(3.013 1.686)" fill="#c6695d"/>
                <path id="Trazado_142948" data-name="Trazado 142948" d="M40.728,20.518a1.012,1.012,0,0,0,1.379-1.431,2.939,2.939,0,0,0-1.738-1.106,7.341,7.341,0,0,0-6.357,1.5s3.893-.2,5.708.516a5.638,5.638,0,0,1,1.009.518" transform="translate(2.369 1.238)" fill="#171612"/>
                <path id="Trazado_142949" data-name="Trazado 142949" d="M46.105,20.981a1.012,1.012,0,0,1-1.191-1.591,2.933,2.933,0,0,1,1.861-.882c3.79-.455,4.872,2,4.872,2a13.425,13.425,0,0,0-4.478.087,5.669,5.669,0,0,0-1.065.389" transform="translate(3.109 1.285)" fill="#171612"/>
                <g id="Grupo_162101" data-name="Grupo 162101" transform="translate(47.917 24.818)" opacity="0.6">
                  <g id="Grupo_162100" data-name="Grupo 162100">
                    <g id="Grupo_162099" data-name="Grupo 162099" clip-path="url(#clip-path-4)">
                      <path id="Trazado_142950" data-name="Trazado 142950" d="M54.477,26.672c0,1.917-2.167,3.47-4.84,3.47s-4.84-1.553-4.84-3.47,2.167-3.47,4.84-3.47,4.84,1.553,4.84,3.47" transform="translate(-44.797 -23.202)" fill="#fff"/>
                    </g>
                  </g>
                </g>
                <g id="Grupo_162104" data-name="Grupo 162104" transform="translate(35.978 24.311)" opacity="0.6">
                  <g id="Grupo_162103" data-name="Grupo 162103">
                    <g id="Grupo_162102" data-name="Grupo 162102" clip-path="url(#clip-path-5)">
                      <path id="Trazado_142951" data-name="Trazado 142951" d="M44.129,26.49c0,2.078-2.349,3.762-5.248,3.762s-5.247-1.684-5.247-3.762,2.349-3.762,5.247-3.762,5.248,1.684,5.248,3.762" transform="translate(-33.635 -22.728)" fill="#fff"/>
                    </g>
                  </g>
                </g>
                <path id="Trazado_142952" data-name="Trazado 142952" d="M45.37,26.6a.3.3,0,0,1-.2-.075,1.26,1.26,0,0,0-1.835-.022.3.3,0,0,1-.445-.412,1.855,1.855,0,0,1,2.678-.022.3.3,0,0,1-.2.532" transform="translate(2.981 1.776)" fill="#fff"/>
                <path id="Trazado_142953" data-name="Trazado 142953" d="M34.721,25.983a.31.31,0,0,1-.159-.045,15.549,15.549,0,0,0-7.178-1.987.3.3,0,1,1,0-.605,15.881,15.881,0,0,1,7.5,2.077.3.3,0,0,1-.159.56" transform="translate(1.886 1.626)" fill="#fff"/>
                <path id="Trazado_142954" data-name="Trazado 142954" d="M54.094,26.853a.306.306,0,0,1-.24-.117c-.605-.779-2.572-1.121-3.281-1.187a.3.3,0,1,1,.057-.6c.114.011,2.814.274,3.7,1.417a.3.3,0,0,1-.239.489" transform="translate(3.503 1.737)" fill="#fff"/>
                <path id="Trazado_142955" data-name="Trazado 142955" d="M87.463,229.3q-2.123.667-4.238,1.254c-.233.065-.467.13-.7.193a118.424,118.424,0,0,1-28.734,4.2c-.247,0-.493.009-.741.011a112.793,112.793,0,0,1-13.522-.62c-.274-.029-.544-.058-.815-.089a118.342,118.342,0,0,1-14.688-2.616c-.246-.058-.49-.12-.734-.18q-3.806-.953-7.59-2.153s-9.931-46.205-2.9-69.488c4.43-14.658,13.517-31.268,13.517-31.268,17.212,5.667,29.227,5.815,37.019,4.482.292-.051.58-.1.859-.159,7.575-1.456,10.855-4.283,10.855-4.283a122.424,122.424,0,0,1,5.818,19c.058.25.113.5.17.752,1.028,4.588,1.9,9.329,2.632,14.111.043.281.084.565.128.848.691,4.606,1.259,9.245,1.729,13.811.022.231.046.463.071.692q.326,3.255.585,6.445c.027.323.051.645.078.968q.265,3.344.466,6.572c.016.272.032.54.049.809.25,4.141.428,8.1.552,11.782.015.408.027.811.04,1.21.432,14,.091,23.719.091,23.719" transform="translate(0.716 8.952)" fill="#c04d3a"/>
                <path id="Trazado_142956" data-name="Trazado 142956" d="M77.618,148.052c-4.364-1.347-9.192-1.939-12.932-4.322-2.591-1.65-4.817-4.161-5.18-7.313a8.09,8.09,0,0,1,.412-3.672c.291-.052.579-.1.858-.159a7.472,7.472,0,0,0,.23,6.26c3.075,6.012,10.493,6.691,16.442,8.454.059.25.114.5.17.753" transform="translate(4.14 9.233)" fill="#7e231a"/>
                <path id="Trazado_142957" data-name="Trazado 142957" d="M82.782,162.975c-.616-.24-1.223-.5-1.816-.782-9.76-4.6-16.823-13.293-25.2-19.823-8.355-6.51-19.967-11.689-30.267-6.384-.426.218-.8-.423-.375-.644a23.113,23.113,0,0,1,16.311-1.394c10.358,2.645,18.128,10.6,25.851,17.492,4.126,3.682,8.457,7.325,13.434,9.81.629.311,1.274.608,1.934.876.044.281.084.565.128.848" transform="translate(1.737 9.269)" fill="#7e231a"/>
                <path id="Trazado_142958" data-name="Trazado 142958" d="M84.735,176.135c-8.521.168-16.636-5.352-22.677-11.176-7.5-7.224-14.067-16.191-23.917-20.385-5.062-2.159-10.812-2.933-16.1-1.174a.438.438,0,0,1-.033.158c-.1.247-.2.5-.3.744,10.978-4.036,21.7,3,29.272,10.39,7.45,7.267,14.091,16.183,24.027,20.216a25.055,25.055,0,0,0,9.8,1.919q-.037-.345-.071-.693" transform="translate(1.512 9.919)" fill="#7e231a"/>
                <path id="Trazado_142959" data-name="Trazado 142959" d="M84.415,181.854A21.717,21.717,0,0,0,69.566,177.5c-3.061.265-6.707,1.3-8.426,4.079-1.934,3.129.343,6.682-.215,10.026-.474,2.823-2.79,4.748-5.089,6.184-2.918,1.824-6,3.311-8.72,5.448a22.25,22.25,0,0,0-6.694,8.12,14.77,14.77,0,0,0-1.365,5.571,49.114,49.114,0,0,0,.4,5.78,13.049,13.049,0,0,1-1.779,8.273c-.273-.029-.543-.058-.815-.089a12.381,12.381,0,0,0,1.016-1.806c1.952-4.3-.011-8.9.533-13.366.857-7.065,6.4-12.239,12.167-15.753,2.774-1.692,6.091-3,8.215-5.55a6.5,6.5,0,0,0,1.437-4.974c-.175-1.845-.773-3.661-.61-5.528.552-6.358,8.924-7.646,13.933-7.121a22.68,22.68,0,0,1,10.785,4.088c.027.323.051.645.078.968" transform="translate(2.567 12.305)" fill="#7e231a"/>
                <path id="Trazado_142960" data-name="Trazado 142960" d="M81.11,203.326a29.625,29.625,0,0,0-2.73,21.5c.068.265.142.529.219.793-.234.065-.467.13-.7.193a29.817,29.817,0,0,1-.736-13.443,31.143,31.143,0,0,1,5.545-12.932q.021.611.039,1.21a30.73,30.73,0,0,0-1.635,2.683" transform="translate(5.342 13.888)" fill="#7e231a"/>
                <path id="Trazado_142961" data-name="Trazado 142961" d="M84.024,188.482c-4.076-.529-8.4.1-10.225,4.238-.915,2.068-.86,4.4-1.471,6.554a10.28,10.28,0,0,1-3.193,4.883c-3.286,2.894-7.606,4.015-11.269,6.3a15.731,15.731,0,0,0-6.988,11.271,29.851,29.851,0,0,0,.155,9.117c-.247,0-.493.009-.741.011a28.982,28.982,0,0,1,.15-10.773,16.054,16.054,0,0,1,7.345-10.449c4.145-2.49,9.482-3.671,12.467-7.769,2.716-3.727,1.156-9.091,4.982-12.206,2.533-2.061,5.654-2.386,8.738-1.981q.024.406.049.809" transform="translate(3.472 13.059)" fill="#7e231a"/>
                <path id="Trazado_142962" data-name="Trazado 142962" d="M46.681,182.509c-.462-3.156-2.338-5.853-3.7-8.667A12.818,12.818,0,0,1,41.533,169a16.925,16.925,0,0,1,1-5.574c.878-3.014,1.481-6.123-.3-8.944-1.808-2.871-5.067-4.538-8.192-5.571a33.83,33.83,0,0,0-13-1.581c-.475.034-.479.779,0,.744a33.285,33.285,0,0,1,11.715,1.217c3.087.9,6.333,2.3,8.365,4.9,2.422,3.107,1.378,6.592.4,10.032a14.686,14.686,0,0,0-.74,4.774,12.312,12.312,0,0,0,1.064,4.159c1.205,2.822,3.085,5.373,3.869,8.369.9,3.452-.319,6.814-2.522,9.5-4.276,5.211-10.98,7.156-16.07,11.346-5.572,4.586-7.168,11.549-7.424,18.441.151.511.309,1.019.471,1.526a.345.345,0,0,0,.242-.337c.117-7.226,1.564-14.568,7.491-19.308,5.26-4.206,12.076-6.186,16.271-11.716a11.355,11.355,0,0,0,2.5-8.466" transform="translate(1.372 10.254)" fill="#7e231a"/>
                <path id="Trazado_142963" data-name="Trazado 142963" d="M18.727,154.736a19.532,19.532,0,0,1,11.325,14.089,18.635,18.635,0,0,1-5.484,16.819,18.91,18.91,0,0,1-8.93,4.935c-.466.108-.27.826.2.718a20.27,20.27,0,0,0,13.918-12.032,19.335,19.335,0,0,0-2.421-18.5,19.742,19.742,0,0,0-8.408-6.746c-.441-.185-.634.535-.2.718" transform="translate(1.07 10.724)" fill="#7e231a"/>
                <path id="Trazado_142964" data-name="Trazado 142964" d="M20.329,151.876A125.176,125.176,0,0,0,15.5,192.988a121.817,121.817,0,0,0,8.218,38.57c-.246-.058-.49-.12-.734-.18A119.951,119.951,0,0,1,17.029,210.8a126,126,0,0,1-1.1-41.286,122.169,122.169,0,0,1,12.629-39.745c.186-.355.72-.041.536.312a119.787,119.787,0,0,0-8.762,21.79" transform="translate(1.026 9.027)" fill="#171612"/>
                <path id="Trazado_142965" data-name="Trazado 142965" d="M24.039,131.553s.671-7.478,2.858-8.909c0,0,22.491,9.178,44.942-1.323,0,0,3.445,3.152,2.824,9.185,0,0-15.891,11.894-50.624,1.047" transform="translate(1.674 8.449)" fill="#7e231a"/>
                <path id="Trazado_142966" data-name="Trazado 142966" d="M29.785,43.145s-5.4,1.33-6.94,9.312c0,0-9.713,2.89-12.327,4.967s-5.74,4.287-5.534,7.707c.671,11.124,17.276,35.774,18.978,42.414S15.41,138.32,15.41,138.32q11.141,9.182,33.9,8.227S46.7,81.818,41.913,71.364s-9.287-18.29-12.128-28.219" transform="translate(0.346 3.005)" fill="#314fa5"/>
                <path id="Trazado_142967" data-name="Trazado 142967" d="M21.254,52.536A23.888,23.888,0,0,0,35.779,70.507c.621.251.892-.757.277-1.005a22.859,22.859,0,0,1-13.8-17.243c-.111-.66-1.117-.381-1.005.277" transform="translate(1.479 3.613)" fill="#1c2b74"/>
                <path id="Trazado_142968" data-name="Trazado 142968" d="M33.348,68.7a172.665,172.665,0,0,1,6.389,55.62q-.377,8.135-1.5,16.21c-.09.656.915.94,1.007.277a177.915,177.915,0,0,0-1.134-56.414q-1.483-8.074-3.758-15.971a.522.522,0,0,0-1.005.277" transform="translate(2.321 4.739)" fill="#1c2b74"/>
                <path id="Trazado_142969" data-name="Trazado 142969" d="M16.445,129.436a41.771,41.771,0,0,0,30.885,7.3c.661-.106.381-1.111-.277-1.007a40.731,40.731,0,0,1-30.081-7.2c-.544-.394-1.066.511-.526.9" transform="translate(1.129 8.944)" fill="#1c2b74"/>
                <path id="Trazado_142970" data-name="Trazado 142970" d="M45.174,44.806S46.544,56.02,47.561,63.3c1.091,7.8,10.1,30.052,11.156,44.692s4.6,35.145,4.6,35.145,12.009-.851,19.855-8.739c0,0-10.407-22.26-12.5-31.186S75.03,82.847,73.42,77.927s-6.629-6.776-7.041-11.188,1.653-11.4-1.652-13.521-12.29-1.564-13.44-2.512c0,0-2.678-5.5-6.113-5.9" transform="translate(3.146 3.12)" fill="#314fa5"/>
                <path id="Trazado_142971" data-name="Trazado 142971" d="M63.909,58.9c.228,3.882.542,7.941,2.844,11.225,1.243,1.772,2.733,3.315,3.5,5.379a11.653,11.653,0,0,1,.427,6.633c-.145.655.859.934,1.005.277a12.9,12.9,0,0,0-2.52-10.849,16.855,16.855,0,0,1-3.334-5.891,32.583,32.583,0,0,1-.882-6.774c-.04-.667-1.082-.672-1.043,0" transform="translate(4.451 4.067)" fill="#1c2b74"/>
                <path id="Trazado_142972" data-name="Trazado 142972" d="M50.988,52.3c.432,4.626.2,9.748-2.19,13.854a.522.522,0,0,0,.9.526c2.484-4.263,2.781-9.573,2.332-14.38-.062-.662-1.106-.669-1.043,0" transform="translate(3.393 3.607)" fill="#1c2b74"/>
                <path id="Trazado_142973" data-name="Trazado 142973" d="M49.794,63.4a302.968,302.968,0,0,1,13.353,61.424c.521,4.689.965,9.386,1.4,14.084.061.662,1.1.669,1.042,0-1.755-18.824-4.166-37.463-8.9-55.8-1.736-6.726-3.72-13.385-5.893-19.983-.209-.634-1.216-.363-1.005.277" transform="translate(3.466 4.37)" fill="#1c2b74"/>
                <path id="Trazado_142974" data-name="Trazado 142974" d="M62.341,135.637a42.29,42.29,0,0,0,17.839-8.884c.513-.433-.228-1.167-.738-.737a41.183,41.183,0,0,1-17.378,8.616c-.655.15-.378,1.155.277,1.005" transform="translate(4.296 8.767)" fill="#1c2b74"/>
                <path id="Trazado_142975" data-name="Trazado 142975" d="M4.258,65.835,3.71,68.942c-.173,1.018-.347,2.034-.5,3.052-.318,2.036-.626,4.07-.908,6.111C1.746,82.187,1.233,86.286.85,90.432s-.706,8.33-.81,12.641c-.055,2.159-.062,4.348.022,6.626a48.643,48.643,0,0,0,.771,7.368c.134.691.3,1.414.514,2.2a19.914,19.914,0,0,0,.917,2.609,15.671,15.671,0,0,0,.793,1.58,13.308,13.308,0,0,0,1.286,1.854,11.6,11.6,0,0,0,2.182,2.045,11.115,11.115,0,0,0,1.552.931l.21.1.152.067.3.129c.206.088.389.153.585.224a13.63,13.63,0,0,0,3.847.749,17.759,17.759,0,0,0,2.8-.077,27.051,27.051,0,0,0,4.248-.813,52.224,52.224,0,0,0,6.707-2.4c2.058-.879,4.012-1.812,5.922-2.776s3.765-1.961,5.6-2.98,3.622-2.079,5.367-3.2,3.454-2.3,5.114-3.549q1.248-.932,2.456-1.926c.4-.328.8-.672,1.2-1.015.2-.171.4-.344.593-.524l.605-.554a5.862,5.862,0,0,0-5.734-9.909l-.321.1c-.435.139-.923.312-1.379.485s-.932.343-1.392.524q-1.385.539-2.752,1.107c-1.824.754-3.625,1.537-5.408,2.331s-3.55,1.6-5.3,2.4-3.509,1.557-5.256,2.266-3.483,1.364-5.174,1.925a36.854,36.854,0,0,1-4.764,1.283,9.214,9.214,0,0,1-1.689.19c-.171,0-.282-.027-.211-.043a2.281,2.281,0,0,1,.9.164c.078.026.142.052.234.087l.129.052.19.089a6.321,6.321,0,0,1,2.013,1.538,5.169,5.169,0,0,1,.448.6c.08.118.124.209.142.221.04.057.013-.073-.014-.255s-.065-.449-.1-.749c-.063-.6-.1-1.349-.12-2.138s-.017-1.637.007-2.505c.047-1.739.167-3.567.333-5.421.342-3.713.825-7.531,1.388-11.362s1.2-7.69,1.9-11.545c.343-1.927.691-3.857,1.058-5.781l.548-2.883.557-2.817.032-.166A10.065,10.065,0,0,0,4.3,65.635c-.01.05-.028.15-.037.2" transform="translate(0 4.006)" fill="#314fa5"/>
                <path id="Trazado_142976" data-name="Trazado 142976" d="M40.516,98.649a8.469,8.469,0,0,0-1.445,8.156c.926,2.54,3.388,5.181,6.293,4.986.512-.035.517-.838,0-.8-2.689.181-4.911-2.42-5.653-4.787a7.648,7.648,0,0,1,1.372-6.986c.316-.4-.248-.972-.567-.567" transform="translate(2.687 6.86)" fill="#1c2b74"/>
                <path id="Trazado_142977" data-name="Trazado 142977" d="M19.577,93.683Q21,83.58,22.434,73.478L21.428,73.2l0,.013c-.092.656.912.939,1.005.277l0-.013c.092-.656-.911-.94-1.005-.277q-1.441,10.1-2.857,20.205c-.093.656.911.94,1.005.277" transform="translate(1.293 5.071)" fill="#1c2b74"/>
                <path id="Trazado_142978" data-name="Trazado 142978" d="M15.212,108.7l-3.076-.112c-.539-.02-.538.817,0,.836l3.076.113c.539.019.538-.818,0-.838" transform="translate(0.817 7.562)" fill="#1c2b74"/>
                <path id="Trazado_142979" data-name="Trazado 142979" d="M17.006,108.925a7.366,7.366,0,0,0-3.853,3.283.451.451,0,0,1-.779-.455,8.33,8.33,0,0,1,4.392-3.7c.544-.2.78.669.24.869" transform="translate(0.857 7.523)" fill="#1c2b74"/>
                <rect id="Rectángulo_38843" data-name="Rectángulo 38843" width="48.694" height="37.47" transform="translate(54.565 124.474) rotate(-79.24)" fill="#171612"/>
                <rect id="Rectángulo_38844" data-name="Rectángulo 38844" width="48.694" height="37.47" transform="translate(52.873 124.153) rotate(-79.24)" fill="#171612"/>
                <path id="Trazado_142980" data-name="Trazado 142980" d="M66.614,73.33s1.517-2.682,4.188-2.09c0,0,1.039-2.622,3.61-2.622a15.663,15.663,0,0,1,6.627,1.434c1.582.792,1.557,3.277,1.557,3.277a5.183,5.183,0,0,1,2.448,1.47,3.217,3.217,0,0,1,.517,2.131Z" transform="translate(4.639 4.779)" fill="#171612"/>
                <path id="Trazado_142981" data-name="Trazado 142981" d="M42.883,106.192a6.748,6.748,0,0,0,9.156,1.885,16.56,16.56,0,0,1,5.175-2.188c3.972-.7,8.858-.415,10.764-1.334,2.814-1.356-.323-2.584-.733-2.683a46.725,46.725,0,0,0-6.4-.877s6.74-1.235,9.371-.638,4.543-.9,2.4-2.867-9.845-2.147-11.995-1.621c0,0,3.961-1.834,7.552-1.142s4.971.459,6.372-.022.157-3.184-4.881-4.022a16.147,16.147,0,0,0-9.542.891,27.057,27.057,0,0,1,4.476-2.853c2.935-1.547,7.022-.415,8.195-2.016,1.2-1.638-3.565-2.733-6.463-2.162s-5.055.741-8.2,2.824a47.669,47.669,0,0,0-7.674,5.883c-1.585,1.7-8.02,7-8.377,10.336a4.132,4.132,0,0,0,.8,2.606" transform="translate(2.93 5.877)" fill="#eaad8f"/>
                <path id="Trazado_142982" data-name="Trazado 142982" d="M45.7,97.736s2.8-6.523,4.727-7.955,4.06-4.618,5.129-3.409-1.666,5.053-1.666,5.053Z" transform="translate(3.183 5.996)" fill="#eaad8f"/>
              </g>
            </g>
          </g>
        </g>
      </g>
    </g>
    <path id="Unión_73" data-name="Unión 73" d="M25.045,2.417l2.1,7.8H22.938A22.8,22.8,0,0,0,0,32.886v13.2A22.8,22.8,0,0,0,22.938,68.755H72A22.8,22.8,0,0,0,94.944,46.089v-13.2A22.8,22.8,0,0,0,72,10.22H36.033L28.438.737A1.88,1.88,0,0,0,26.947,0,1.922,1.922,0,0,0,25.045,2.417Z" transform="translate(1375.14 2280.755) rotate(180)" fill="#fff7da" stroke="rgba(0,0,0,0)" stroke-miterlimit="10" stroke-width="1"/>
    <path id="Trazado_142986" data-name="Trazado 142986" d="M-11.023.732l5.039,5.039L-.989.732-5.984-4.262Zm18.7,0,5.039,5.039L17.715.732,12.721-4.262Zm18.7,0,5.039,5.039L36.42.732,31.426-4.262Z" transform="translate(1314.945 2245.263)" fill="#12263f"/>
  </g>
</svg>
