<svg xmlns="http://www.w3.org/2000/svg" xmlns:xlink="http://www.w3.org/1999/xlink" width="60" height="60" viewBox="0 0 60 60">
  <defs>
    <clipPath id="clip-path">
      <rect id="Rectángulo_38851" data-name="Rectángulo 38851" width="31.112" height="42.994" fill="none"/>
    </clipPath>
    <clipPath id="clip-path-3">
      <rect id="Rectángulo_38846" data-name="Rectángulo 38846" width="2.01" height="1.509" fill="none"/>
    </clipPath>
    <clipPath id="clip-path-4">
      <rect id="Rectángulo_38847" data-name="Rectángulo 38847" width="4.877" height="1.625" fill="none"/>
    </clipPath>
    <clipPath id="clip-path-5">
      <rect id="Rectángulo_38848" data-name="Rectángulo 38848" width="6.823" height="4.892" fill="none"/>
    </clipPath>
    <clipPath id="clip-path-6">
      <rect id="Rectángulo_38849" data-name="Rectángulo 38849" width="7.398" height="5.304" fill="none"/>
    </clipPath>
  </defs>
  <g id="Grupo_162123" data-name="Grupo 162123" transform="translate(-444 -2847)">
    <g id="Grupo_159043" data-name="Grupo 159043" transform="translate(444 2847.471)">
      <circle id="Elipse_4780" data-name="Elipse 4780" cx="30" cy="30" r="30" transform="translate(0 -0.471)" fill="#c4d1ff"/>
    </g>
    <g id="Grupo_162122" data-name="Grupo 162122" transform="translate(458 2856)" clip-path="url(#clip-path)">
      <g id="Grupo_162121" data-name="Grupo 162121" transform="translate(0 0)">
        <g id="Grupo_162120" data-name="Grupo 162120" clip-path="url(#clip-path)">
          <path id="Trazado_142987" data-name="Trazado 142987" d="M2.619,34.536c8.911,2.439,18.513,2.006,28.492,0-.827-6.43-1.3-14.652-.768-18.005C32.151,5.169,22.011-2.219,9.807.6S-.345,20.251,1.112,26.156c.294,1.191.92,4.756,1.507,8.381" transform="translate(0 0)" fill="#e59f3f"/>
          <path id="Trazado_142988" data-name="Trazado 142988" d="M35.482,22a2.1,2.1,0,0,1,1.954,1.763c.5,1.808-.066,4.99-1.974,4.835s.02-6.6.02-6.6" transform="translate(-8.517 -5.412)" fill="#c6695d"/>
          <path id="Trazado_142989" data-name="Trazado 142989" d="M33.339,30.776a2.557,2.557,0,1,1,2.732,2.369,2.559,2.559,0,0,1-2.732-2.369m.746-.053a1.809,1.809,0,1,0,1.676-1.933,1.811,1.811,0,0,0-1.676,1.933" transform="translate(-8.2 -6.897)" fill="#fff"/>
          <line id="Línea_381" data-name="Línea 381" y2="0.002" transform="translate(23.564 31.487)" fill="#eaad8f"/>
          <path id="Trazado_142990" data-name="Trazado 142990" d="M11.818,46.72a11.543,11.543,0,0,0,8.557,4.591c6.964.183,7.4-2.86,7.4-2.86a13.04,13.04,0,0,1-.878-2.773c-.075-.37-.138-.752-.19-1.15a31.645,31.645,0,0,1-.228-3.663c-.005-.324-.008-.662-.007-1.01v-.041c-4.875-.567-9-2.215-12.068-5.4l-.762-.341-.513-.231-.056.287.194.871A17.449,17.449,0,0,1,11.818,46.72" transform="translate(-2.907 -8.325)" fill="#eaad8f"/>
          <path id="Trazado_142991" data-name="Trazado 142991" d="M20.171,38.921c1.267,2.147,4.062,5.877,8.59,6.857a31.643,31.643,0,0,1-.228-3.662q-.008-.487-.007-1.01c-.092.022-.188.041-.283.059-2.564.474-5.527-.529-8.073-2.243" transform="translate(-4.962 -9.575)" fill="#171612"/>
          <path id="Trazado_142992" data-name="Trazado 142992" d="M4.842,20.59a6.005,6.005,0,0,0,5.894,5.554h.091c.063.146.133.289.207.434.032.063.066.127.1.189a.107.107,0,0,0,.011.017c2.346,4.286,8.753,6.536,12.148,6.446a7.763,7.763,0,0,0,2.27-.419c3.551-.974,3.962-5.865,3.2-9.546a14.009,14.009,0,0,0-.4-1.509c-.011-.032-.021-.064-.032-.1,0,0,.925-5.256,1.086-7.536.308-4.418-2.45-8.743-12.123-9.1S5.629,10.759,5.123,13.965c-.085.534.191,3.675.744,4.154A2.573,2.573,0,0,0,4.842,20.59" transform="translate(-1.189 -1.231)" fill="#eaad8f"/>
          <path id="Trazado_142993" data-name="Trazado 142993" d="M34.115,24.952c-.073.723-.437,1.279-.812,1.241s-.621-.655-.548-1.378.437-1.279.812-1.241.621.655.548,1.378" transform="translate(-8.055 -5.799)" fill="#171612"/>
          <path id="Trazado_142994" data-name="Trazado 142994" d="M31.31,24.1a.193.193,0,0,1-.038-.341,3.089,3.089,0,0,1,3.348-.073.193.193,0,0,1-.228.311,2.745,2.745,0,0,0-2.908.084.19.19,0,0,1-.173.02" transform="translate(-7.672 -5.707)" fill="#171612"/>
          <path id="Trazado_142995" data-name="Trazado 142995" d="M25.741,24.25c-.073.723-.437,1.279-.812,1.241s-.621-.655-.548-1.378.437-1.279.812-1.241.621.655.548,1.378" transform="translate(-5.995 -5.626)" fill="#171612"/>
          <path id="Trazado_142996" data-name="Trazado 142996" d="M22.514,23.632a.19.19,0,0,1-.1-.062.192.192,0,0,1,.021-.271,3.085,3.085,0,0,1,3.311-.5.192.192,0,1,1-.187.336,2.746,2.746,0,0,0-2.873.451.19.19,0,0,1-.17.041" transform="translate(-5.502 -5.532)" fill="#171612"/>
          <path id="Trazado_142997" data-name="Trazado 142997" d="M30.038,34.016a2.638,2.638,0,0,1-.344-.023,3.331,3.331,0,0,1-2-1.318.365.365,0,0,1,.6-.42,2.624,2.624,0,0,0,1.5,1.015,1.287,1.287,0,0,0,1.255-.418.367.367,0,0,1,.505-.1.362.362,0,0,1,.1.5,1.934,1.934,0,0,1-1.611.76" transform="translate(-6.797 -7.897)" fill="#c6695d"/>
          <path id="Trazado_142998" data-name="Trazado 142998" d="M11.59,28.946a.351.351,0,0,1-.3-.264c-.6-2.411-3.56-3.309-3.59-3.318a.35.35,0,0,1,.2-.672c.137.041,3.378,1.016,4.073,3.822a.35.35,0,0,1-.256.424.354.354,0,0,1-.122.008" transform="translate(-1.832 -6.071)" fill="#c6695d"/>
          <path id="Trazado_142999" data-name="Trazado 142999" d="M8.712,28.206a.355.355,0,0,1-.129-.04.35.35,0,0,1-.141-.474A2.4,2.4,0,0,1,10.5,26.535a.35.35,0,0,1,.009.7,1.7,1.7,0,0,0-1.447.789.351.351,0,0,1-.346.182" transform="translate(-2.066 -6.528)" fill="#c6695d"/>
          <g id="Grupo_162110" data-name="Grupo 162110" transform="translate(25.56 20.523)" opacity="0.5">
            <g id="Grupo_162109" data-name="Grupo 162109">
              <g id="Grupo_162108" data-name="Grupo 162108" clip-path="url(#clip-path-3)">
                <path id="Trazado_143000" data-name="Trazado 143000" d="M33.9,28.091c.028.385.89.644,2.009.637a14.284,14.284,0,0,0-.4-1.509c-.958.175-1.634.522-1.608.872" transform="translate(-33.9 -27.219)" fill="#c6695d"/>
              </g>
            </g>
          </g>
          <g id="Grupo_162113" data-name="Grupo 162113" transform="translate(14.706 21.129)" opacity="0.5">
            <g id="Grupo_162112" data-name="Grupo 162112">
              <g id="Grupo_162111" data-name="Grupo 162111" clip-path="url(#clip-path-4)">
                <path id="Trazado_143001" data-name="Trazado 143001" d="M24.381,28.661c.032.438-1.034.872-2.381.968s-2.463-.18-2.494-.618,1.034-.872,2.381-.969,2.463.181,2.494.619" transform="translate(-19.505 -28.023)" fill="#c6695d"/>
              </g>
            </g>
          </g>
          <path id="Trazado_143002" data-name="Trazado 143002" d="M12.661,32.634h.091c.063.146.133.289.207.434.032.063.066.127.1.189a.082.082,0,0,0,.011.017,3.105,3.105,0,0,0,1.28-.587A2.478,2.478,0,0,0,15,31.9a.35.35,0,0,0-.619-.328,1.888,1.888,0,0,1-.794.774,2.55,2.55,0,0,1-.6.223,3.016,3.016,0,0,1-.325.064" transform="translate(-3.115 -7.721)" fill="#c6695d"/>
          <path id="Trazado_143003" data-name="Trazado 143003" d="M12.13,32.158a3.162,3.162,0,0,1-.735.159c0,.013,0,.025.005.038a1.809,1.809,0,1,1-2.218-1.631.508.508,0,0,0-.054-.753A2.556,2.556,0,1,0,12.146,32.3c0-.048-.01-.1-.016-.143" transform="translate(-1.731 -7.373)" fill="#fff"/>
          <path id="Trazado_143004" data-name="Trazado 143004" d="M29.484,36.576a1.362,1.362,0,0,1-.807-.415.229.229,0,0,1,.347-.3.931.931,0,0,0,1.021.2.23.23,0,0,1,.158.431,1.507,1.507,0,0,1-.719.088" transform="translate(-7.041 -8.803)" fill="#c6695d"/>
          <path id="Trazado_143005" data-name="Trazado 143005" d="M8.167,8.167a10.886,10.886,0,0,1,8.213-4.1c4.87.025,9.449,1.482,12.071,3.977A6.852,6.852,0,0,1,30.7,12.315c.533,5.031-.605,4.1-.605,4.1a6.326,6.326,0,0,0-.186-1.182h0c-.124-.642-.332-1.626-.681-3.135-.833-3.6-12.42-3.4-11.546-1.095a4.171,4.171,0,0,1,.043.743,4.991,4.991,0,0,1-.379,1.844c-.091.019-.179.04-.262.059a10.459,10.459,0,0,0-2.849,1.1l0,0a3.745,3.745,0,0,0-1.43,3.275c.357,1.881,1.186,4.318-.127,3.918a3.223,3.223,0,0,1-1.825-1.917l0,0a6.037,6.037,0,0,0-2.9-1.96c-.607-3.3-.909-6.69.226-9.905" transform="translate(-1.821 -1)" fill="#e59f3f"/>
          <path id="Trazado_143006" data-name="Trazado 143006" d="M7.454,12.269c3.4-1.373,9.105.89,10.115,1.392A4.991,4.991,0,0,1,17.19,15.5c-.092.019-.18.04-.262.059a10.473,10.473,0,0,0-2.849,1.1l0,0a3.745,3.745,0,0,0-1.43,3.275c.356,1.881,2.68,11.893.811,13.576-3.791,3.412-3.283-11.559-3.283-11.559-.729-.809-1.1-1.627-2.385-1.976-1.451-2.608-1.122-5.189-.334-7.714" transform="translate(-1.668 -2.911)" fill="#e59f3f"/>
          <path id="Trazado_143007" data-name="Trazado 143007" d="M7.31,10.954s-1.931,3.128-.431,7.955a5.893,5.893,0,0,0-2.475,0c-.779.332-1.763-2.529-1.107-5.249S7.564,7.47,7.564,7.47s.413,2.567-.255,3.484" transform="translate(-0.758 -1.838)" fill="#e59f3f"/>
          <path id="Trazado_143008" data-name="Trazado 143008" d="M30.56,28.688a.292.292,0,0,0,.156-.048l1.279-.843a.293.293,0,0,0-.026-.505,4.23,4.23,0,0,1-2.135-2.867.294.294,0,1,0-.566.156,4.887,4.887,0,0,0,2.009,2.987l-.883.582a.294.294,0,0,0,.167.539" transform="translate(-7.197 -5.955)" fill="#c6695d"/>
          <path id="Trazado_143009" data-name="Trazado 143009" d="M24.731,19.708A.713.713,0,0,0,25.7,18.7a2.074,2.074,0,0,0-1.225-.78A5.175,5.175,0,0,0,20,18.979a13.227,13.227,0,0,1,4.023.363,3.958,3.958,0,0,1,.712.365" transform="translate(-4.919 -4.372)" fill="#171612"/>
          <path id="Trazado_143010" data-name="Trazado 143010" d="M31.658,20.234a.713.713,0,0,1-.839-1.121,2.068,2.068,0,0,1,1.312-.622c2.671-.32,3.434,1.408,3.434,1.408a9.463,9.463,0,0,0-3.156.061,4.05,4.05,0,0,0-.751.274" transform="translate(-7.534 -4.539)" fill="#171612"/>
          <g id="Grupo_162116" data-name="Grupo 162116" transform="translate(23.209 17.494)" opacity="0.6">
            <g id="Grupo_162115" data-name="Grupo 162115">
              <g id="Grupo_162114" data-name="Grupo 162114" clip-path="url(#clip-path-5)">
                <path id="Trazado_143011" data-name="Trazado 143011" d="M37.606,25.647c0,1.351-1.528,2.446-3.412,2.446S30.782,27,30.782,25.647,32.31,23.2,34.194,23.2s3.412,1.095,3.412,2.446" transform="translate(-30.782 -23.201)" fill="#fff"/>
              </g>
            </g>
          </g>
          <g id="Grupo_162119" data-name="Grupo 162119" transform="translate(14.793 17.137)" opacity="0.6">
            <g id="Grupo_162118" data-name="Grupo 162118">
              <g id="Grupo_162117" data-name="Grupo 162117" clip-path="url(#clip-path-6)">
                <path id="Trazado_143012" data-name="Trazado 143012" d="M27.017,25.38c0,1.465-1.656,2.652-3.7,2.652s-3.7-1.187-3.7-2.652,1.656-2.652,3.7-2.652,3.7,1.187,3.7,2.652" transform="translate(-19.62 -22.728)" fill="#fff"/>
              </g>
            </g>
          </g>
          <path id="Trazado_143013" data-name="Trazado 143013" d="M30.6,26.277a.213.213,0,0,1-.14-.053.887.887,0,0,0-1.294-.015.214.214,0,0,1-.313-.291A1.307,1.307,0,0,1,30.74,25.9a.213.213,0,0,1-.14.375" transform="translate(-7.084 -6.275)" fill="#fff"/>
          <path id="Trazado_143014" data-name="Trazado 143014" d="M18.452,25.2a.219.219,0,0,1-.112-.032,10.961,10.961,0,0,0-5.06-1.4.214.214,0,0,1,0-.428,11.2,11.2,0,0,1,5.285,1.465.213.213,0,0,1-.112.4" transform="translate(-3.214 -5.743)" fill="#fff"/>
          <path id="Trazado_143015" data-name="Trazado 143015" d="M38.959,26.29a.216.216,0,0,1-.169-.082,4.138,4.138,0,0,0-2.312-.836.214.214,0,0,1,.04-.425c.081.008,1.984.193,2.61,1a.213.213,0,0,1-.168.345" transform="translate(-8.926 -6.137)" fill="#fff"/>
        </g>
      </g>
    </g>
  </g>
</svg>
