<svg xmlns="http://www.w3.org/2000/svg" xmlns:xlink="http://www.w3.org/1999/xlink" width="133" height="116" viewBox="0 0 133 116">
  <defs>
    <clipPath id="clip-path">
      <rect id="Rect치ngulo_38682" data-name="Rect치ngulo 38682" width="76.834" height="76.872" fill="none"/>
    </clipPath>
  </defs>
  <g id="Grupo_161631" data-name="Grupo 161631" transform="translate(-722 -7519)">
    <rect id="Rect치ngulo_36141" data-name="Rect치ngulo 36141" width="133" height="116" transform="translate(722 7519)" fill="#c4d1ff"/>
    <g id="Grupo_161738" data-name="Grupo 161738" transform="translate(750 7539)">
      <g id="Grupo_161738-2" data-name="Grupo 161738" transform="translate(0 0)" clip-path="url(#clip-path)">
        <path id="Trazado_142160" data-name="Trazado 142160" d="M75.949,0c.567.386,1.052.818.829,1.607-.2.692-.678.964-1.691.965-.991,0-1.982.01-2.973,0-.3,0-.439.047-.474.4-.753,7.569-5.083,12.663-11.393,16.357-.528.31-.611.5-.387,1.069a6.242,6.242,0,0,1-.43,5.635,1.608,1.608,0,0,0-.048,1.714c4.529,8.5,4.636,17.267,1.079,26.015C56.217,64.2,48.718,71.479,37.947,75.077c-8.25,2.755-16.378,2.467-24.166-1.755a1.569,1.569,0,0,0-1.7.049,6.453,6.453,0,0,1-7.749-.812,6.452,6.452,0,0,1-.847-7.806,1.617,1.617,0,0,0,0-1.774A27.858,27.858,0,0,1,.048,47.669,34.6,34.6,0,0,1,8.79,26.559,35.4,35.4,0,0,1,27.866,14.883,34.312,34.312,0,0,1,34.1,14c.127-.244-.055-.407-.142-.572A30.715,30.715,0,0,1,31,4.685c-.353-1.919.316-2.976,2.207-3.52A29.592,29.592,0,0,1,38.423.148c.123-.012.258.006.313-.148h4.423a22.63,22.63,0,0,1,3.356.5A14.527,14.527,0,0,1,54.8,6.713a26.947,26.947,0,0,1,3.816,9.4c.18.853.215.875.96.422a20.328,20.328,0,0,0,7.553-7.76,15.442,15.442,0,0,0,1.628-5.127c.089-.61-.022-.86-.7-.884-1.042-.037-1.593-.607-1.591-1.473A1.2,1.2,0,0,1,67.409,0Z" transform="translate(0 0)"/>
        <path id="Trazado_142161" data-name="Trazado 142161" d="M38.875,82.863A28.374,28.374,0,0,1,27.2,84.483a25.878,25.878,0,0,1-10.921-3.245,3.572,3.572,0,0,0-3.766.093,4.077,4.077,0,0,1-1.693.641,3.5,3.5,0,0,1-3.545-1.437,3.7,3.7,0,0,1-.1-4.172,3.958,3.958,0,0,0,.108-4.244A25.59,25.59,0,0,1,4.952,52.565c3.5-12.824,11.728-21.156,24.583-24.8a13.7,13.7,0,0,1,3.06-.569c.168-.066.361-.138.477.043.091.142-.032.289-.13.4a11.206,11.206,0,0,1-.856.751,28.858,28.858,0,0,0-5.4,7.3c-.486.908-.371,1.381.521,2a34.426,34.426,0,0,0,5.827,3.1,7.575,7.575,0,0,0,1.123.445,30.838,30.838,0,0,0,5.967,2c5.425,1.071,10.02-.513,13.945-4.293.42-.4.831-.815,1.247-1.223.41-.068.509.271.646.524a27.525,27.525,0,0,1,3.408,12.287C59.7,59.323,56.7,66.9,51.141,73.558a34.424,34.424,0,0,1-9.863,8.163c-.779.43-1.629.707-2.4,1.143" transform="translate(-1.51 -10.285)" fill="#fe6b00"/>
        <path id="Trazado_142162" data-name="Trazado 142162" d="M62.814,39.611a12.606,12.606,0,0,1-6.67-.245,26.332,26.332,0,0,1-7.554-3.5c-.341-.223-.515-.4-.272-.834A25.486,25.486,0,0,1,54.837,27c3.871-3.008,8.089-3.268,12.558-1.627a26.35,26.35,0,0,1,3.929,2.279c.905.639.932.8.436,1.8a27.542,27.542,0,0,1-5.754,7.885,11.35,11.35,0,0,1-3.191,2.279" transform="translate(-18.276 -9.238)" fill="#60a817"/>
        <path id="Trazado_142163" data-name="Trazado 142163" d="M76.288,17.782a55.931,55.931,0,0,0-5.364-2.4c-4.223-1.478-8.44-1.871-12.619.155-.364.177-.512.084-.711-.233a27.03,27.03,0,0,1-3.575-9.235c-.115-.584.057-.835.639-.983a27.4,27.4,0,0,1,8.276-.917,12.519,12.519,0,0,1,10.935,7.094,22.635,22.635,0,0,1,1.607,3.774c.29.908.543,1.828.812,2.742" transform="translate(-20.467 -1.569)" fill="#008900"/>
        <path id="Trazado_142164" data-name="Trazado 142164" d="M60.18,86.107a15.192,15.192,0,0,1,2.759-1.57A36.611,36.611,0,0,0,77.672,68.221a33.737,33.737,0,0,0,2.491-8.255,24.929,24.929,0,0,0,.412-4.9,28.437,28.437,0,0,0-1.76-9.8,43.687,43.687,0,0,0-1.871-3.995c-.063-.125-.21-.208-.317-.31a42.141,42.141,0,0,0,3.823-5.282,3.336,3.336,0,0,1-.415,2.544,4.083,4.083,0,0,0-.052,4.324,26.387,26.387,0,0,1,1.793,21.31C78.3,74.657,71.065,82,60.472,86.043a1.991,1.991,0,0,1-.292.063" transform="translate(-22.816 -13.529)" fill="#fc411d"/>
        <path id="Trazado_142165" data-name="Trazado 142165" d="M47.724,41.1a4.918,4.918,0,0,1-2.143-.7,30.11,30.11,0,0,1-4.867-2.637c-1.065-.725-1.208-1.227-.6-2.354a28.829,28.829,0,0,1,5.515-7.392c.238-.225.536-.389.759-.625.394-.415-.1-.257-.232-.328a12.051,12.051,0,0,1,2.637-.306c.04.306-.218.391-.363.532a29.432,29.432,0,0,0-5.673,7.667,2.621,2.621,0,0,0,.983,3.795c1.275.875,2.642,1.589,3.982,2.351" transform="translate(-15.072 -10.142)" fill="#fc411d"/>
        <path id="Trazado_142166" data-name="Trazado 142166" d="M71.735,40.223a34.972,34.972,0,0,0,3.735-3.063,28.606,28.606,0,0,0,4.713-6.552,7.337,7.337,0,0,1,.5-.938c.348-.477.181-.777-.25-1.06a29.352,29.352,0,0,0-3.561-2.162c-.22-.1-.492-.17-.556-.469a24.733,24.733,0,0,1,6.573,3.247c.29.186.264.364.12.624C80.889,33.7,78.33,37.145,74.364,39.3a7.113,7.113,0,0,1-2.629.928" transform="translate(-27.196 -9.85)" fill="#549314"/>
        <path id="Trazado_142167" data-name="Trazado 142167" d="M23.222,75.51a1.282,1.282,0,1,1-1.235-1.29,1.316,1.316,0,0,1,1.235,1.29" transform="translate(-7.832 -28.138)" fill="#020100"/>
        <path id="Trazado_142168" data-name="Trazado 142168" d="M37.666,56.956a1.268,1.268,0,0,1-1.257,1.263A1.258,1.258,0,1,1,36.4,55.7a1.271,1.271,0,0,1,1.269,1.252" transform="translate(-13.314 -21.119)" fill="#020200"/>
        <path id="Trazado_142169" data-name="Trazado 142169" d="M29.392,63.133a1.269,1.269,0,0,1-1.236,1.285,1.3,1.3,0,0,1-1.312-1.3,1.282,1.282,0,0,1,1.291-1.234,1.244,1.244,0,0,1,1.257,1.252" transform="translate(-10.177 -23.46)" fill="#020100"/>
        <path id="Trazado_142170" data-name="Trazado 142170" d="M15.766,63.907a1.282,1.282,0,1,1-.009,2.565,1.289,1.289,0,0,1-1.267-1.322,1.305,1.305,0,0,1,1.275-1.243" transform="translate(-5.493 -24.229)" fill="#020200"/>
        <path id="Trazado_142171" data-name="Trazado 142171" d="M12.911,79.592a1.281,1.281,0,1,1-2.561.075,1.281,1.281,0,0,1,2.561-.075" transform="translate(-3.923 -29.707)" fill="#020200"/>
        <path id="Trazado_142172" data-name="Trazado 142172" d="M24.047,54.111a1.264,1.264,0,0,1-1.289-1.229,1.259,1.259,0,1,1,2.516-.06,1.265,1.265,0,0,1-1.227,1.288" transform="translate(-8.628 -19.551)" fill="#010100"/>
        <path id="Trazado_142173" data-name="Trazado 142173" d="M35.583,71.391a1.26,1.26,0,1,1-2.518-.056,1.259,1.259,0,0,1,2.518.056" transform="translate(-12.535 -26.578)" fill="#020100"/>
        <path id="Trazado_142174" data-name="Trazado 142174" d="M19.818,89.143a1.26,1.26,0,1,1,1.333-1.165,1.23,1.23,0,0,1-1.333,1.165" transform="translate(-7.064 -32.842)" fill="#010100"/>
      </g>
    </g>
  </g>
</svg>
